<svg width="48" height="48" viewBox="0 0 48 48" fill="none" xmlns="http://www.w3.org/2000/svg">
<g id="Vector" filter="url(#filter0_d_1_5)">
<path d="M32.5878 25.1572H30.781L30.1407 24.5397C32.3819 21.9325 33.7313 18.5477 33.7313 14.8656C33.7313 6.65523 27.076 0 18.8656 0C10.6552 0 4 6.65523 4 14.8656C4 23.076 10.6552 29.7313 18.8656 29.7313C22.5477 29.7313 25.9325 28.3819 28.5397 26.1407L29.1572 26.781V28.5878L40.5923 40L44 36.5923L32.5878 25.1572ZM18.8656 25.1572C13.171 25.1572 8.57404 20.5603 8.57404 14.8656C8.57404 9.17095 13.171 4.57404 18.8656 4.57404C24.5603 4.57404 29.1572 9.17095 29.1572 14.8656C29.1572 20.5603 24.5603 25.1572 18.8656 25.1572Z" fill="black"/>
<path d="M30.434 25.5172L30.5792 25.6572H30.781H32.3804L43.2932 36.592L40.592 39.2932L29.6572 28.3804V26.781V26.5792L29.5172 26.434L28.8997 25.7936L28.5719 25.4537L28.2138 25.7615C25.6937 27.9279 22.4235 29.2313 18.8656 29.2313C10.9314 29.2313 4.5 22.7999 4.5 14.8656C4.5 6.93137 10.9314 0.5 18.8656 0.5C26.7999 0.5 33.2313 6.93137 33.2313 14.8656C33.2313 18.4235 31.9279 21.6937 29.7615 24.2138L29.4537 24.5719L29.7936 24.8997L30.434 25.5172ZM8.07404 14.8656C8.07404 20.8365 12.8948 25.6572 18.8656 25.6572C24.8365 25.6572 29.6572 20.8365 29.6572 14.8656C29.6572 8.89481 24.8365 4.07404 18.8656 4.07404C12.8948 4.07404 8.07404 8.89481 8.07404 14.8656Z" stroke="black"/>
</g>
<defs>
<filter id="filter0_d_1_5" x="0" y="0" width="48" height="48" filterUnits="userSpaceOnUse" color-interpolation-filters="sRGB">
<feFlood flood-opacity="0" result="BackgroundImageFix"/>
<feColorMatrix in="SourceAlpha" type="matrix" values="0 0 0 0 0 0 0 0 0 0 0 0 0 0 0 0 0 0 127 0" result="hardAlpha"/>
<feOffset dy="4"/>
<feGaussianBlur stdDeviation="2"/>
<feComposite in2="hardAlpha" operator="out"/>
<feColorMatrix type="matrix" values="0 0 0 0 0 0 0 0 0 0 0 0 0 0 0 0 0 0 0.25 0"/>
<feBlend mode="normal" in2="BackgroundImageFix" result="effect1_dropShadow_1_5"/>
<feBlend mode="normal" in="SourceGraphic" in2="effect1_dropShadow_1_5" result="shape"/>
</filter>
</defs>
</svg>
